<?xml version="1.0" encoding="UTF-8" standalone="no"?><!DOCTYPE svg PUBLIC "-//W3C//DTD SVG 1.1//EN" "http://www.w3.org/Graphics/SVG/1.1/DTD/svg11.dtd"><svg width="100%" height="100%" viewBox="0 0 566 95" version="1.1" xmlns="http://www.w3.org/2000/svg" xmlns:xlink="http://www.w3.org/1999/xlink" xml:space="preserve" style="fill-rule:evenodd;clip-rule:evenodd;stroke-linejoin:round;stroke-miterlimit:1.41421;"><g><path d="M262.334,2.877c2.676,9.678 16.929,66.579 16.929,66.579l18.461,-66.579l22.283,0l-28.009,89.876l-23.173,0c-2.8,-9.928 -5.47,-19.855 -8.402,-29.658c-4.836,-16.55 -5.091,-17.185 -7.761,-29.788c-2.297,11.072 -2.546,11.962 -7.644,29.147l-8.651,30.299l-23.172,0l-28.01,-89.876l22.407,0l18.586,66.834l16.295,-66.834l19.861,0Z" style="fill:#dc5138;fill-rule:nonzero;"/><path d="M350.294,25.568l-11.079,36.637l22.786,0l-11.707,-36.637ZM362.387,2.877l30.482,89.876l-21.32,0l-4.457,-14.384l-33.093,0l-4.456,14.384l-21.32,0l30.737,-89.876l23.427,0Z" style="fill:#dc5138;fill-rule:nonzero;"/><path d="M401.294,2.877l22.027,0l19.475,33.1c7.127,12.604 9.293,16.68 13.494,24.572l-1.021,-57.672l21.517,0l0,89.876l-22.021,0l-16.805,-28.388c-8.147,-13.363 -9.678,-16.164 -15.784,-28.133l0.635,56.521l-21.517,0l0,-89.876Z" style="fill:#dc5138;fill-rule:nonzero;"/><path d="M536.186,92.753l-16.165,0l0,-29.023l-29.152,0l0,-16.17l29.152,0l0,-29.023l16.165,0l0,29.023l28.899,0l0,16.17l-28.899,0l0,29.023Z" style="fill:#dc5138;fill-rule:nonzero;"/><path d="M87.123,72.067c-3.53,5.168 -6.927,10.207 -14.524,15.123c-4.067,2.642 -13.436,7.81 -26.732,7.81c-25.379,0 -45.867,-17.137 -45.867,-47.247c0,-26.334 19.267,-47.124 46.411,-47.124c10.987,0 20.761,3.53 27.953,8.821c6.648,4.916 9.773,9.825 12.487,14.236l-19.003,8.821c-1.353,-2.895 -2.985,-5.919 -7.192,-9.197c-4.611,-3.4 -9.229,-4.41 -13.164,-4.41c-15.466,0 -23.614,13.355 -23.614,28.225c0,19.527 10.723,29.229 23.614,29.229c12.487,0 17.51,-8.063 20.768,-13.232l18.863,8.945Z" style="fill:#dc5138;fill-rule:nonzero;"/><path d="M153.988,25.707c-4.054,-4.035 -10.276,-6.555 -16.769,-6.555c-14.468,0 -23.665,11.846 -23.665,27.973c0,21.166 12.708,28.977 23.936,28.977c11.36,0 23.533,-7.559 24.208,-26.205c0.41,-9.326 -2.302,-18.776 -7.71,-24.19ZM137.49,94.871c-30.291,0 -47.47,-21.671 -47.47,-47.37c0,-24.068 16.366,-46.872 47.067,-46.872c5.68,0 11.631,0.758 17.443,2.649c29.213,9.449 31.104,39.054 31.104,45.103c0,15.37 -7.571,29.23 -18.117,37.17c-9.337,7.183 -20.155,9.32 -30.027,9.32Z" style="fill:#dc5138;fill-rule:nonzero;"/></g></svg>